<svg height="512" viewBox="0 0 512 512" width="512" xmlns="http://www.w3.org/2000/svg"><g id="BULINE"><circle cx="256" cy="256" fill="#fc4581" r="256"/></g><g id="Icons"><path d="m167.12 15.86v480.3c-97.58-36.16-167.12-130.01-167.12-240.16s69.54-204 167.12-240.14z" fill="#205bb2"/><path d="m344.87 15.86v480.3a256.79 256.79 0 0 1 -177.75 0v-480.3a257.1 257.1 0 0 1 177.75 0z" fill="#fff"/><path d="m512 256a256.09 256.09 0 0 1 -167.13 240.16v-480.3a256.2 256.2 0 0 1 167.13 240.14z" fill="#db1b1b"/><path d="m196.53 7v498.05a254.83 254.83 0 0 1 -29.41-8.89v-480.3a254.86 254.86 0 0 1 29.41-8.86z" fill="#e0e0e0"/><path d="m374.28 28.92v454.19a255.61 255.61 0 0 1 -29.41 13.05v-480.3a254 254 0 0 1 29.41 13.06z" fill="#c11616"/><circle cx="444.71" cy="166.38" fill="#ea3434" r="16.28"/><circle cx="444.71" cy="132.47" fill="#ea3434" r="11.53"/><path d="m57.87 256.05a255.69 255.69 0 0 0 109.25 209.79v30.32c-97.58-36.16-167.12-130.01-167.12-240.16s69.54-204 167.12-240.14v30.42a255.64 255.64 0 0 0 -109.25 209.77z" fill="#18539b"/><path d="m196.53 483.64a254.3 254.3 0 0 0 88.19 26.78 259.42 259.42 0 0 1 -28.72 1.58 256.31 256.31 0 0 1 -88.88-15.85v-30.31a253.77 253.77 0 0 0 29.41 17.8z" fill="#e0e0e0"/><path d="m196.53 28.48a253.77 253.77 0 0 0 -29.41 17.8v-30.42a255.63 255.63 0 0 1 88.88-15.86 260.14 260.14 0 0 1 29.17 1.64 253.89 253.89 0 0 0 -88.64 26.84z" fill="#e0e0e0"/><g fill="#ccc"><path d="m196.53 7v21.48a253.77 253.77 0 0 0 -29.41 17.8v-30.42a254.86 254.86 0 0 1 29.41-8.86z"/><path d="m167.12 465.84a253.77 253.77 0 0 0 29.41 17.8v21.41a254.83 254.83 0 0 1 -29.41-8.89z"/></g></g></svg>