<?xml version="1.0" encoding="UTF-8"?>
<svg id="Layer_2" data-name="Layer 2" xmlns="http://www.w3.org/2000/svg" xmlns:xlink="http://www.w3.org/1999/xlink" viewBox="0 0 2010.29 775.33">
  <defs>
    <style>
      .cls-1 {
        fill: #1f392e;
      }

      .cls-2 {
        fill: #303030;
      }

      .cls-3 {
        fill: none;
      }

      .cls-4 {
        fill: #e2e2e2;
      }

      .cls-5 {
        fill: #c6a16b;
      }

      .cls-6 {
        clip-path: url(#clippath);
      }
    </style>
    <clipPath id="clippath">
      <path class="cls-3" d="M148.41,141.38v492.08h491.67V141.38H148.41ZM593.41,260.76c-1.6,1.14-3.48,1.74-5.44,1.74-3.05,0-5.92-1.48-7.68-3.96-1.19-1.67-2.51-3.47-4.03-5.49l-.08-.58,20.29-3.38c1.9,4.04.71,9-3.06,11.68ZM619.6,366.8l-.16-.2c-.34-4.39-.78-8.66-1.29-12.68-.32-2.49.35-4.96,1.89-6.95,1.54-1.99,3.75-3.26,6.25-3.58.4-.05.81-.08,1.21-.08,2.4,0,4.66.94,6.37,2.53l-14.26,20.95Z"/>
    </clipPath>
  </defs>
  <g id="Layer_1-2" data-name="Layer 1">
    <g>
      <g>
        <circle class="cls-1" cx="387.67" cy="387.67" r="377.96"/>
        <path class="cls-5" d="M388.49,775.33c-21.61,0-43.37-1.81-65.12-5.47-102.09-17.17-191.38-73.07-251.43-157.4C11.9,528.13-11.71,425.47,5.46,323.38c17.17-102.09,73.07-191.38,157.4-251.43C247.2,11.9,349.86-11.71,451.96,5.46c102.09,17.17,191.38,73.07,251.43,157.4,60.05,84.33,83.66,187,66.48,289.09-17.17,102.09-73.07,191.38-157.4,251.43-66.37,47.26-144.1,71.95-223.97,71.95ZM386.88,19.22c-75.91,0-149.78,23.46-212.87,68.38C93.87,144.67,40.74,229.54,24.42,326.56c-16.32,97.03,6.12,194.6,63.19,274.75,57.07,80.15,141.93,133.28,238.96,149.6,200.31,33.69,390.66-101.85,424.35-302.15,33.69-200.3-101.85-390.66-302.15-424.35-20.66-3.47-41.35-5.19-61.89-5.19ZM760.39,450.36h.01-.01Z"/>
      </g>
      <g>
        <g>
          <path class="cls-4" d="M57.88,316.98c1.11-5.22,2.93-9.46,5.46-12.7,2.52-3.24,5.58-5.47,9.17-6.69,3.59-1.21,7.57-1.36,11.93-.42,2.58.55,5.1,1.49,7.54,2.83,2.45,1.33,4.55,3.07,6.31,5.22,1.76,2.15,2.99,4.78,3.67,7.89.69,3.12.59,6.74-.3,10.87l-1.91,8.95,20.06,4.28-2.66,12.48-63.36-13.52,4.1-19.2ZM89.51,321.48c.4-1.89.41-3.54.02-4.95-.39-1.4-1.01-2.57-1.86-3.5-.85-.93-1.79-1.67-2.81-2.22-1.02-.55-1.94-.91-2.74-1.08-.63-.13-1.5-.21-2.6-.24-1.1-.02-2.27.16-3.5.56-1.22.4-2.35,1.16-3.37,2.3-1.02,1.13-1.77,2.79-2.23,4.97l-1.91,8.95,19.11,4.08,1.89-8.87Z"/>
          <path class="cls-4" d="M127.35,301.78l-49.17-54.52.29-.64,73.4,1.32-6.13,13.46-50.84-2.65-1.94-11.04,39.6,42.61-5.22,11.46ZM114.33,273.89l8.07-17.7,11.63.37-11.57,25.39-8.13-8.06Z"/>
          <path class="cls-4" d="M117.85,185.36c2.45-3.22,5.05-5.78,7.78-7.68,2.74-1.9,5.51-3.12,8.33-3.67,2.81-.55,5.62-.46,8.42.27,2.8.73,5.53,2.11,8.19,4.13,2.1,1.6,3.96,3.51,5.58,5.74,1.62,2.23,2.75,4.72,3.4,7.45.64,2.74.6,5.68-.12,8.81-.73,3.14-2.41,6.43-5.03,9.89l-5.54,7.29,16.39,12.48-7.73,10.16-51.56-39.24,11.89-15.62ZM144.54,202.91c1.17-1.54,1.89-3.02,2.16-4.44.27-1.42.23-2.72-.12-3.91-.35-1.19-.86-2.24-1.53-3.15-.67-.91-1.38-1.66-2.12-2.22-.56-.43-1.33-.89-2.32-1.38-.99-.49-2.12-.82-3.4-.98-1.28-.16-2.62.05-4.03.64-1.41.59-2.79,1.77-4.14,3.54l-5.54,7.29,15.55,11.84,5.49-7.22ZM158.09,198.18l29.6,2.39-9.01,11.84-29.53-1.9,8.94-12.33Z"/>
          <path class="cls-4" d="M153.1,145.32l9.34-8.7,44.18,47.39-9.34,8.7-44.18-47.39Z"/>
          <path class="cls-4" d="M221.95,111.52c-2.8.26-5.5.75-8.11,1.45s-4.83,1.68-6.68,2.93c-2.29,1.55-3.77,3.23-4.46,5.04-.69,1.81-.41,3.64.84,5.49.86,1.26,2.12,2.06,3.79,2.38,1.67.32,3.56.34,5.66.04,2.11-.29,4.22-.7,6.35-1.22,1.95-.47,3.96-.82,6.04-1.06,2.07-.23,4.12-.17,6.14.2,2.02.37,4,1.19,5.93,2.47,1.93,1.28,3.77,3.21,5.51,5.78,1.84,2.72,2.85,5.73,3.02,9.01.17,3.29-.62,6.57-2.37,9.84-1.75,3.28-4.62,6.26-8.6,8.96-2.04,1.38-4.26,2.58-6.65,3.6-2.39,1.02-4.9,1.79-7.52,2.32-2.62.53-5.32.78-8.1.75l-.91-11.4c1.89.07,3.81-.05,5.77-.35,1.96-.3,3.82-.76,5.59-1.39,1.77-.63,3.29-1.37,4.55-2.23,1.26-.86,2.42-1.9,3.46-3.14,1.04-1.24,1.69-2.58,1.95-4.03.26-1.45-.14-2.95-1.19-4.51-.72-1.07-1.73-1.8-3.03-2.2-1.3-.4-2.79-.56-4.47-.48-1.68.08-3.41.33-5.18.74-2.08.49-4.27.91-6.58,1.27-2.31.36-4.63.46-6.97.31-2.34-.15-4.58-.8-6.73-1.93-2.15-1.13-4.09-2.99-5.84-5.56-2.1-3.11-3.24-6.28-3.4-9.5-.16-3.22.57-6.35,2.19-9.4,1.62-3.05,4.04-5.76,7.24-8.15,4.33-2.93,8.18-4.79,11.57-5.6,3.39-.81,6.63-1.23,9.72-1.27l1.47,10.81Z"/>
        </g>
        <path class="cls-4" d="M271.95,70.08l41.91-12.25,3.46,11.83-15.12,4.42,14.72,50.36-12.25,3.58-14.72-50.36-14.53,4.25-3.46-11.83Z"/>
        <path class="cls-4" d="M339.64,53.2l44.05-3.51.98,12.29-31.33,2.5,1.1,13.78,27.73-2.21.98,12.29-27.73,2.21,1.11,13.95,32.56-2.6.98,12.29-45.28,3.61-5.15-64.59Z"/>
        <path class="cls-4" d="M459.71,126l-41.38-51.66,3.4,2.69-6.08,39.15-12.77-2.07,10.79-66.47.52.08,40.37,51.32-2.58-1.67,6.21-39.93,12.69,2.06-10.8,66.56-.35-.06Z"/>
        <path class="cls-4" d="M526.74,154.64l-26.01-60.87,2.55,3.5-16.36,36.08-11.75-5.42,28.22-61.15.48.22,25.13,60.26-2.04-2.3,16.69-36.8,11.67,5.39-28.25,61.23-.32-.15Z"/>
        <path class="cls-4" d="M580.28,110.77l10.33,7.49-38.04,52.45-10.33-7.49,38.04-52.45Z"/>
        <path class="cls-4" d="M626.66,171.86c-.8-2.69-1.79-5.25-2.98-7.68s-2.58-4.42-4.16-6c-1.96-1.95-3.89-3.08-5.8-3.41-1.91-.33-3.65.3-5.22,1.88-1.08,1.08-1.61,2.47-1.61,4.17,0,1.7.35,3.56,1.04,5.57.69,2.01,1.49,4.01,2.41,6,.83,1.82,1.57,3.73,2.19,5.72.63,1.99.96,4.01.98,6.07.02,2.05-.4,4.15-1.29,6.29-.89,2.14-2.43,4.31-4.62,6.52-2.32,2.33-5.07,3.89-8.27,4.69-3.19.8-6.57.65-10.12-.44-3.55-1.09-7.03-3.33-10.45-6.72-1.75-1.74-3.35-3.68-4.81-5.84-1.46-2.15-2.7-4.46-3.72-6.93-1.02-2.47-1.79-5.07-2.29-7.81l11.01-3.08c.29,1.87.78,3.73,1.45,5.6.67,1.87,1.48,3.61,2.44,5.22.96,1.62,1.98,2.96,3.06,4.04,1.08,1.08,2.33,2.01,3.74,2.79,1.41.78,2.86,1.16,4.33,1.14,1.47-.03,2.87-.7,4.2-2.03.91-.92,1.44-2.05,1.58-3.4.14-1.35.01-2.84-.39-4.48-.4-1.64-.98-3.29-1.73-4.94-.88-1.95-1.71-4.02-2.51-6.22-.79-2.2-1.34-4.46-1.64-6.78-.3-2.32-.1-4.65.6-6.97.7-2.33,2.14-4.59,4.34-6.8,2.65-2.66,5.54-4.38,8.67-5.16,3.13-.78,6.35-.66,9.65.35,3.3,1.01,6.43,2.85,9.38,5.54,3.7,3.68,6.28,7.11,7.72,10.28,1.44,3.17,2.48,6.27,3.11,9.3l-10.32,3.51Z"/>
      </g>
      <g>
        <path class="cls-4" d="M141.56,510.83l24.22,36.96-10.31,6.75-17.22-26.29-11.56,7.58,15.25,23.27-10.31,6.75-15.25-23.27-11.71,7.67,17.9,27.32-10.31,6.75-24.9-37.99,54.19-35.51Z"/>
        <path class="cls-4" d="M133.41,610.14l41.47-11.28-4.23,13.53-25.53,8.42-11.72-10.67ZM177.69,562.83l12.04,10.97-12.39,76.35-12.17-11.08,12.52-76.24ZM183.16,599.96l25.9-8.56,11.46,10.43-39.88,10.71,2.53-12.58Z"/>
        <path class="cls-4" d="M255.91,622.41c4.71,2.51,8.28,5.43,10.7,8.75,2.42,3.32,3.72,6.87,3.89,10.66.17,3.79-.79,7.65-2.89,11.58-1.24,2.33-2.84,4.49-4.8,6.47-1.96,1.98-4.21,3.52-6.76,4.62-2.55,1.1-5.42,1.55-8.6,1.35-3.18-.2-6.64-1.3-10.37-3.29l-8.08-4.31-9.66,18.09-11.26-6.01,30.51-57.16,17.32,9.24ZM242.85,651.56c1.71.91,3.29,1.38,4.75,1.39,1.46.01,2.75-.26,3.88-.82,1.13-.56,2.1-1.26,2.91-2.09.81-.83,1.41-1.61,1.79-2.33.3-.57.62-1.38.95-2.44.33-1.05.47-2.23.43-3.51-.05-1.29-.47-2.58-1.28-3.87-.81-1.29-2.19-2.47-4.16-3.52l-8.08-4.31-9.2,17.24,8,4.27Z"/>
        <path class="cls-4" d="M298.31,641.54l42.84,10.85-3.03,11.95-30.47-7.71-3.39,13.4,26.97,6.83-3.03,11.95-26.97-6.83-3.44,13.57,31.66,8.02-3.03,11.95-44.03-11.15,15.91-62.81Z"/>
        <path class="cls-4" d="M385.68,655.21c4.05.07,7.65.64,10.8,1.72,3.15,1.08,5.78,2.59,7.89,4.53,2.11,1.94,3.7,4.26,4.77,6.94,1.07,2.69,1.58,5.7,1.53,9.05-.04,2.64-.48,5.28-1.32,7.9-.83,2.63-2.17,5.01-3.99,7.15-1.83,2.14-4.21,3.85-7.17,5.12-2.96,1.27-6.6,1.87-10.95,1.8l-9.15-.15-.33,20.6-12.76-.21,1.05-64.78,19.63.32ZM387.36,687.11c1.94.03,3.55-.26,4.86-.89,1.3-.62,2.33-1.43,3.08-2.42.75-.99,1.29-2.02,1.63-3.1.34-1.08.52-2.09.53-3.03.01-.7-.08-1.6-.26-2.69-.19-1.09-.6-2.2-1.22-3.32-.63-1.12-1.59-2.08-2.9-2.87-1.31-.78-3.08-1.19-5.31-1.23l-9.15-.15-.32,19.54,9.07.15ZM399.2,695.23l15.61,25.26-14.88-.24-15.97-24.91,15.23-.1Z"/>
        <path class="cls-4" d="M437.16,650.97l12.51-2.52,12.81,63.51-12.51,2.52-12.81-63.51Z"/>
        <path class="cls-4" d="M477.1,641.51l40.72-17.16,4.79,11.36-28.96,12.2,5.37,12.74,25.63-10.8,4.79,11.36-25.63,10.8,5.44,12.9,30.1-12.68,4.79,11.36-41.86,17.64-25.16-59.71Z"/>
        <path class="cls-4" d="M626.1,629.68l-66.06-4.26,4.28-.7,24.81,30.88-10.14,8.04-41.83-52.77.41-.33,65.12,4.77-2.97.78-25.31-31.5,10.07-7.98,41.89,52.84-.28.22Z"/>
        <path class="cls-4" d="M678.45,552.62c.06.91-.06,2.44-.37,4.57-.31,2.13-.96,4.54-1.96,7.22-1,2.68-2.5,5.36-4.51,8.04-3.09,4.07-6.51,7.22-10.27,9.46-3.76,2.24-7.67,3.62-11.73,4.12-4.06.5-8.09.22-12.09-.87-4-1.08-7.78-2.91-11.35-5.49-3.99-2.89-7.22-6.14-9.67-9.77-2.45-3.62-4.07-7.44-4.86-11.45-.79-4.01-.72-8.07.22-12.17.94-4.1,2.78-8.05,5.54-11.86,2.55-3.52,5.28-6.29,8.19-8.31,2.91-2.02,5.53-3.49,7.87-4.41l6.83,11.13c-1.76.54-3.85,1.44-6.25,2.7-2.4,1.27-4.53,3.19-6.39,5.75-1.45,2-2.41,4.21-2.91,6.64-.49,2.43-.49,4.9.02,7.4.51,2.5,1.48,4.89,2.91,7.16,1.44,2.27,3.34,4.27,5.72,5.99,2.52,1.82,5.09,3.12,7.72,3.9,2.63.78,5.19,1.02,7.68.72,2.5-.29,4.84-1.11,7.05-2.45,2.2-1.34,4.18-3.22,5.93-5.65,2.03-2.8,3.32-5.53,3.86-8.18.54-2.65.69-4.86.45-6.63l12.37,2.43Z"/>
        <path class="cls-4" d="M640.72,497.46l16.25-41.09,11.46,4.53-11.56,29.23,12.85,5.08,10.23-25.87,11.46,4.53-10.23,25.87,13.02,5.15,12.01-30.37,11.46,4.53-16.7,42.24-60.25-23.83Z"/>
      </g>
      <path class="cls-5" d="M385.99,286.91c.05.12.07.29.1.41l.6-.17c-.22-.05-.48-.14-.7-.24Z"/>
      <g>
        <path class="cls-2" d="M382,292.41c.05.14.08.33.11.47l.69-.19c-.25-.05-.55-.16-.8-.27Z"/>
        <path class="cls-2" d="M382.79,292.68c-.25-.05-.55-.16-.8-.27"/>
        <path class="cls-1" d="M450.68,230.37c.03-.11-.05-.38-.11-.47-1.29-3.73-2.88-7.22-4.86-10.35-8.38-13.87-22.46-23.62-38.8-26.36-30.57-5.14-59.57,15.52-64.7,46.03-3.76,22.27,5.85,43.83,23.95,55.91l2.86,1.7c2.31,1.48,4.75,2.66,7.33,3.68,3.79,1.59,7.8,2.77,11.92,3.49,1.62.27,3.21.47,4.81.47,23.64,2,45.7-11.23,55.45-32.16,2.11-4.53,3.63-9.34,4.48-14.47.63-3.68.85-7.28.77-10.9-.16-5.6-1.21-11.18-3.08-16.56ZM443.51,256.24c-1.26,7.63-4.37,14.47-8.73,20.29-10.16,13.43-27.19,20.95-44.9,17.96l-.52-.08c-2.22-.36-4.45-.99-6.56-1.73l-.8-.27c-.6-2.09-1.13-4.23-1.4-6.45-.16-.93-.33-1.92-.36-2.88-.05-.77-.14-1.43-.14-2.2-.16-3.19.05-6.43.58-9.58,4.26-25.35,28.31-42.46,53.58-38.23,1.26.22,2.5.49,3.65.82,1.51.25,2.88.8,4.28,1.29.74,2.44,1.26,4.97,1.62,7.52.52,4.45.47,9.06-.3,13.54ZM351.68,240.8c4.26-25.27,28.31-42.4,53.63-38.15,10.24,1.73,19.39,6.73,26.25,14.06,2.06,2.2,3.84,4.56,5.47,7.06l-1.18-.19c-30.51-5.14-59.51,15.52-64.65,46.11-.25,1.43-.41,2.8-.52,4.2-.14,1.18-.22,2.47-.22,3.68-.11,1.7-.08,3.46.08,5.08.08,1.43.25,2.75.41,4.12-2.47-1.76-4.78-3.71-6.84-5.85-10.08-10.27-14.97-25.1-12.44-40.12Z"/>
        <g>
          <path class="cls-5" d="M437.03,223.78l-1.18-.19c-30.51-5.14-59.51,15.52-64.65,46.11-.25,1.43-.41,2.8-.52,4.2-.14,1.18-.22,2.47-.22,3.68-.11,1.7-.08,3.46.08,5.08.08,1.43.25,2.75.41,4.12-2.47-1.76-4.78-3.71-6.84-5.85-10.08-10.27-14.97-25.1-12.44-40.12,4.26-25.27,28.31-42.4,53.63-38.15,10.24,1.73,19.39,6.73,26.25,14.06,2.06,2.2,3.84,4.56,5.47,7.06Z"/>
          <path class="cls-5" d="M443.51,256.24c-1.26,7.63-4.37,14.47-8.73,20.29-10.16,13.43-27.19,20.95-44.9,17.96l-.52-.08c-2.22-.36-4.45-.99-6.56-1.73-.25-.05-.55-.16-.8-.27-.6-2.09-1.13-4.23-1.4-6.45-.16-.93-.33-1.92-.36-2.88-.05-.77-.14-1.43-.14-2.2-.16-3.19.05-6.43.58-9.58,4.26-25.35,28.31-42.46,53.58-38.23,1.26.22,2.5.49,3.65.82,1.51.25,2.88.8,4.28,1.29.74,2.44,1.26,4.97,1.62,7.52.52,4.45.47,9.06-.3,13.54Z"/>
        </g>
      </g>
      <g>
        <path class="cls-5" d="M394.97,631.46c-13.6,0-27.3-1.14-40.99-3.44-64.27-10.81-120.48-46-158.28-99.09-37.8-53.09-52.66-117.72-41.85-181.98,10.81-64.27,46-120.48,99.09-158.28,53.09-37.8,117.72-52.66,181.98-41.85,63.43,10.67,121.71,47.63,159.9,101.4,2.69,3.79,1.8,9.03-1.99,11.72-3.78,2.69-9.03,1.8-11.72-1.99-35.62-50.16-89.92-84.62-148.98-94.55-59.84-10.06-120.01,3.77-169.44,38.97-49.43,35.19-82.19,87.53-92.26,147.37-10.06,59.84,3.77,120.01,38.97,169.44,35.19,49.43,87.53,82.19,147.37,92.26,12.74,2.14,25.5,3.2,38.17,3.2,46.82,0,92.37-14.47,131.28-42.17,49.43-35.19,82.19-87.53,92.26-147.37,3.49-20.74,3.74-47.39.67-71.3-.59-4.61,2.66-8.82,7.27-9.41,4.61-.59,8.82,2.66,9.41,7.27,3.27,25.46,2.98,53.96-.77,76.23-10.81,64.27-46,120.48-99.09,158.28-41.78,29.75-90.71,45.29-140.99,45.29Z"/>
        <g>
          <path class="cls-4" d="M678.86,279.71l-227.58,334.49c-87.23,24.89-95.91,5.53-95.91,5.53l176.86-186.08c68.9-78.27,129.04-154.14,129.04-154.14l-14.31-21.36c-67.28,17.24-286.29,92.5-286.29,92.5-120.03,44.62-205.03,75.84-205.38,74.91,0,0-.02-.06,9.73-5.31h0l-3.66-72.42,198.36-48.26c3.12,6.25,67.26,34.18,98.52-27.41l193.52-32.29,27.09,39.85Z"/>
          <g>
            <path class="cls-4" d="M195.66,508.78c-1.51,0-2.97-.81-3.72-2.24-1.09-2.06-.3-4.6,1.75-5.69l412.67-218.45c2.06-1.09,4.6-.3,5.69,1.75,1.09,2.06.3,4.6-1.75,5.69l-412.67,218.45c-.63.33-1.3.49-1.97.49Z"/>
            <path class="cls-4" d="M271.02,592.35c-1.24,0-2.47-.54-3.3-1.59-1.45-1.82-1.15-4.47.67-5.92l349.89-278.3c1.82-1.45,4.47-1.14,5.91.67,1.45,1.82,1.15,4.47-.67,5.91l-349.89,278.3c-.77.62-1.7.92-2.62.92Z"/>
            <path class="cls-4" d="M369.82,624.63c-3.03,0-5.96-1.67-7.42-4.56l-114.89-227.56c-2.07-4.09-.42-9.08,3.67-11.15,4.09-2.07,9.08-.42,11.15,3.67l114.89,227.56c2.07,4.09.42,9.08-3.67,11.15-1.2.61-2.48.89-3.73.89Z"/>
            <path class="cls-4" d="M425.75,561.88c-3.04,0-5.98-1.68-7.43-4.59l-98.74-197.42c-2.05-4.1-.39-9.09,3.71-11.14,4.1-2.05,9.09-.39,11.14,3.71l98.74,197.42c2.05,4.1.39,9.09-3.71,11.14-1.19.6-2.46.88-3.71.88Z"/>
            <path class="cls-4" d="M490.69,521.86c-1.96,0-3.86-1.04-4.86-2.89l-105.56-193.65c-1.46-2.68-.47-6.04,2.21-7.51,2.68-1.47,6.05-.47,7.51,2.21l105.56,193.65c1.46,2.68.47,6.04-2.21,7.51-.84.46-1.75.68-2.64.68Z"/>
            <path class="cls-4" d="M541.73,473.94c-1.43,0-2.82-.73-3.61-2.04l-96.9-160.83c-1.2-1.99-.56-4.58,1.43-5.78,1.99-1.2,4.58-.56,5.78,1.43l96.9,160.83c1.2,1.99.56,4.58-1.43,5.78-.68.41-1.43.6-2.17.6Z"/>
            <path class="cls-4" d="M566.22,421.55c-1.44,0-2.84-.74-3.63-2.07l-79.02-133.39c-1.18-2-.52-4.58,1.48-5.77,2-1.18,4.58-.52,5.77,1.48l79.02,133.39c1.18,2,.52,4.58-1.48,5.77-.67.4-1.41.59-2.14.59Z"/>
            <path class="cls-4" d="M593.56,381.24c-1.42,0-2.8-.71-3.59-2.01l-61.33-100.11c-1.21-1.98-.59-4.57,1.39-5.79,1.98-1.21,4.57-.59,5.79,1.39l61.32,100.11c1.21,1.98.59,4.57-1.39,5.79-.69.42-1.45.62-2.2.62Z"/>
            <path class="cls-4" d="M616.73,348.55c-1.4,0-2.76-.69-3.56-1.96l-44.99-71.29c-1.24-1.97-.65-4.57,1.31-5.81,1.97-1.24,4.56-.65,5.81,1.31l44.99,71.29c1.24,1.97.65,4.57-1.31,5.81-.7.44-1.47.65-2.24.65Z"/>
            <path class="cls-4" d="M638.54,334.42c-1.4,0-2.76-.69-3.56-1.96l-44.99-71.29c-1.24-1.97-.65-4.57,1.31-5.81,1.97-1.24,4.56-.65,5.81,1.31l44.99,71.29c1.24,1.97.65,4.57-1.31,5.81-.7.44-1.47.65-2.24.65Z"/>
          </g>
          <polygon class="cls-4" points="760.17 245.78 708.1 272.13 695.97 269.8 690.7 262.04 681.32 248.71 672.41 235.06 667.15 227.29 669.47 215.16 713.29 176.52 723.55 191.67 692.99 218.85 696.21 237.76 712.56 247.77 749.49 228.46 760.17 245.78"/>
          <polygon class="cls-4" points="780.24 191.4 732.82 223.55 717.27 231.34 711.1 227.82 709.74 220.24 722.73 208.68 770.15 176.52 780.24 191.4"/>
        </g>
        <g class="cls-6">
          <path class="cls-5" d="M394.97,631.46c-13.6,0-27.3-1.14-40.99-3.44-64.27-10.81-120.48-46-158.28-99.09-37.8-53.09-52.66-117.72-41.85-181.98,10.81-64.27,46-120.48,99.09-158.28,53.09-37.8,117.72-52.66,181.98-41.85,63.43,10.67,121.71,47.63,159.9,101.4,2.69,3.79,1.8,9.03-1.99,11.72-3.78,2.69-9.03,1.8-11.72-1.99-35.62-50.16-89.92-84.62-148.98-94.55-59.84-10.06-120.01,3.77-169.44,38.97-49.43,35.19-82.19,87.53-92.26,147.37-10.06,59.84,3.77,120.01,38.97,169.44,35.19,49.43,87.53,82.19,147.37,92.26,12.74,2.14,25.5,3.2,38.17,3.2,46.82,0,92.37-14.47,131.28-42.17,49.43-35.19,82.19-87.53,92.26-147.37,3.49-20.74,3.74-47.39.67-71.3-.59-4.61,2.66-8.82,7.27-9.41,4.61-.59,8.82,2.66,9.41,7.27,3.27,25.46,2.98,53.96-.77,76.23-10.81,64.27-46,120.48-99.09,158.28-41.78,29.75-90.71,45.29-140.99,45.29Z"/>
        </g>
      </g>
      <polygon class="cls-5" points="78.06 389.57 70.17 438.24 98.36 478.7 106.25 430.03 78.06 389.57"/>
      <polygon class="cls-5" points="705.07 324.79 681.02 370.6 695.62 420.24 719.67 374.43 705.07 324.79"/>
    </g>
    <g>
      <g>
        <path class="cls-4" d="M891.23,137.45c10.84,0,20.02,1.82,27.52,5.45,7.5,3.63,13.22,8.75,17.16,15.36,3.93,6.61,5.9,14.45,5.9,23.5,0,5.36-.81,10.75-2.42,16.17-1.61,5.42-4.17,10.34-7.68,14.74-3.52,4.41-8.22,7.95-14.12,10.63-5.9,2.68-13.13,4.02-21.7,4.02h-18.58v41.63h-25.91v-131.51h39.84ZM895.7,202.13c3.93,0,7.21-.68,9.83-2.06,2.62-1.37,4.68-3.1,6.16-5.18,1.49-2.08,2.56-4.26,3.22-6.52s.98-4.23.98-5.9c0-1.31-.21-3.07-.63-5.27-.42-2.2-1.28-4.44-2.59-6.7-1.31-2.26-3.3-4.17-5.98-5.72-2.68-1.55-6.29-2.32-10.81-2.32h-18.58v39.67h18.4Z"/>
        <path class="cls-4" d="M960.2,268.96l59.32-136.69h1.43l59.32,136.69h-30.02l-37.88-96.13,18.76-12.86-45.39,109h-25.55ZM1000.76,221.43h39.49l9.11,21.8h-56.64l8.04-21.8Z"/>
        <path class="cls-4" d="M1149.24,137.45c8.22,0,15.55,1.04,21.97,3.13,6.43,2.09,11.82,5.06,16.17,8.93,4.35,3.87,7.65,8.52,9.92,13.94,2.26,5.42,3.39,11.53,3.39,18.31,0,5.36-.8,10.72-2.41,16.08-1.61,5.36-4.23,10.25-7.87,14.65-3.63,4.41-8.43,7.95-14.38,10.63-5.96,2.68-13.34,4.02-22.16,4.02h-18.58v41.81h-25.91v-131.51h39.85ZM1153.71,202.13c3.93,0,7.2-.65,9.83-1.97s4.67-2.97,6.16-5c1.49-2.02,2.56-4.14,3.22-6.34.65-2.2.98-4.26.98-6.16,0-1.43-.21-3.24-.63-5.45-.42-2.2-1.29-4.44-2.59-6.7-1.31-2.26-3.3-4.17-5.99-5.72-2.68-1.55-6.28-2.32-10.81-2.32h-18.58v39.67h18.41ZM1178.01,218.21l32.52,50.75h-30.2l-33.23-50.03,30.91-.72Z"/>
        <path class="cls-4" d="M1241.97,137.45h25.91v131.51h-25.91v-131.51Z"/>
        <path class="cls-4" d="M1382.06,169.25c-5.01-2.74-10.1-5-15.28-6.79-5.18-1.79-10.04-2.68-14.56-2.68-5.6,0-10.01,1.13-13.22,3.4-3.22,2.26-4.82,5.66-4.82,10.18,0,3.1,1.22,5.87,3.66,8.31,2.44,2.44,5.6,4.62,9.47,6.52,3.87,1.91,7.89,3.64,12.06,5.18,3.81,1.43,7.59,3.13,11.35,5.09,3.75,1.97,7.11,4.41,10.1,7.33,2.97,2.92,5.36,6.55,7.15,10.9,1.78,4.35,2.68,9.68,2.68,15.99,0,6.67-1.73,12.86-5.18,18.58-3.45,5.72-8.52,10.33-15.19,13.85-6.67,3.51-14.89,5.27-24.65,5.27-5.01,0-10.1-.51-15.28-1.52s-10.28-2.56-15.28-4.65c-5.01-2.08-9.83-4.73-14.48-7.95l11.43-20.19c3.1,2.26,6.46,4.26,10.1,5.98,3.63,1.73,7.3,3.07,10.99,4.02,3.69.95,7.09,1.43,10.19,1.43s6.22-.45,9.38-1.34,5.78-2.41,7.87-4.56c2.08-2.14,3.12-5.12,3.12-8.93,0-2.62-.86-5-2.59-7.15-1.73-2.14-4.05-4.11-6.97-5.9-2.92-1.79-6.1-3.33-9.56-4.65-4.05-1.55-8.22-3.33-12.5-5.36-4.29-2.02-8.31-4.5-12.06-7.41-3.76-2.92-6.79-6.55-9.11-10.9-2.32-4.35-3.49-9.68-3.49-15.99,0-7.62,1.7-14.23,5.09-19.83,3.39-5.6,8.19-10.03,14.38-13.31,6.19-3.28,13.34-5.09,21.44-5.45,10.6,0,19.21,1.25,25.82,3.75,6.62,2.5,12.54,5.48,17.78,8.93l-9.83,19.83Z"/>
      </g>
      <g>
        <path class="cls-5" d="M842.45,321.63h88.63v25.01h-31.98v106.49h-25.91v-106.49h-30.74v-25.01Z"/>
        <path class="cls-5" d="M966.1,321.63h89.7v25.01h-63.79v28.05h56.47v25.01h-56.47v28.41h66.29v25.01h-92.2v-131.51Z"/>
        <path class="cls-5" d="M1212.85,458.49l-99.7-90.05,7.68,4.29.54,80.41h-26.27v-136.69h1.08l97.55,89.7-5.71-2.5-.54-82.01h26.09v136.87h-.71Z"/>
        <path class="cls-5" d="M1375.27,458.49l-99.7-90.05,7.68,4.29.54,80.41h-26.27v-136.69h1.08l97.55,89.7-5.71-2.5-.54-82.01h26.09v136.87h-.71Z"/>
        <path class="cls-5" d="M1419.94,321.63h25.91v131.51h-25.91v-131.51Z"/>
        <path class="cls-5" d="M1560.03,353.43c-5.01-2.74-10.1-5-15.28-6.79s-10.04-2.68-14.56-2.68c-5.6,0-10.01,1.13-13.22,3.4-3.22,2.26-4.82,5.66-4.82,10.18,0,3.1,1.22,5.87,3.66,8.31,2.44,2.44,5.6,4.62,9.47,6.52,3.87,1.91,7.89,3.64,12.06,5.18,3.81,1.43,7.59,3.13,11.35,5.09,3.75,1.97,7.11,4.41,10.1,7.33,2.97,2.92,5.36,6.55,7.15,10.9,1.78,4.35,2.68,9.68,2.68,15.99,0,6.67-1.73,12.86-5.18,18.58-3.45,5.72-8.52,10.33-15.19,13.85-6.67,3.51-14.89,5.27-24.65,5.27-5.01,0-10.1-.51-15.28-1.52s-10.28-2.56-15.28-4.65c-5.01-2.08-9.83-4.73-14.48-7.95l11.43-20.19c3.1,2.26,6.46,4.26,10.1,5.98,3.63,1.73,7.3,3.07,10.99,4.02,3.69.95,7.09,1.43,10.19,1.43s6.22-.45,9.38-1.34,5.78-2.41,7.87-4.56c2.08-2.14,3.12-5.12,3.12-8.93,0-2.62-.86-5-2.59-7.15-1.73-2.14-4.05-4.11-6.97-5.9-2.92-1.79-6.1-3.33-9.56-4.65-4.05-1.55-8.22-3.33-12.5-5.36-4.29-2.02-8.31-4.5-12.06-7.41-3.76-2.92-6.79-6.55-9.11-10.9-2.32-4.35-3.49-9.68-3.49-15.99,0-7.62,1.7-14.23,5.09-19.83,3.39-5.6,8.19-10.03,14.38-13.31,6.19-3.28,13.34-5.09,21.44-5.45,10.6,0,19.21,1.25,25.82,3.75,6.62,2.5,12.54,5.48,17.78,8.93l-9.83,19.83Z"/>
      </g>
      <g>
        <path class="cls-4" d="M854.6,513.17h78.26v8.4h-69.5v50.39h62.54v8.4h-62.54v51.28h72.01v8.4h-80.76v-126.86Z"/>
        <path class="cls-4" d="M966.28,640.03l42.88-67.01,4.64,7.68-36.81,59.32h-10.72ZM968.06,513.17h10.9l82.55,126.86h-11.08l-82.37-126.86ZM1013.27,570.17l35.56-57h10.36l-40.91,63.97-5.01-6.97Z"/>
        <path class="cls-4" d="M1128.87,513.17c7.86,0,14.75,1.34,20.64,4.02,5.9,2.68,10.48,6.67,13.76,11.97,3.28,5.3,4.91,11.94,4.91,19.92,0,4.77-.75,9.38-2.23,13.85s-3.87,8.49-7.15,12.06-7.44,6.43-12.5,8.58c-5.07,2.14-11.17,3.22-18.31,3.22h-19.66v53.25h-8.76v-126.86h29.3ZM1127.98,578.39c6.19,0,11.34-.98,15.45-2.95,4.11-1.97,7.33-4.47,9.65-7.5,2.32-3.04,3.99-6.22,5-9.56,1.01-3.33,1.52-6.43,1.52-9.29,0-4.05-.66-7.74-1.97-11.08-1.31-3.33-3.25-6.22-5.81-8.67-2.56-2.44-5.69-4.35-9.38-5.72-3.69-1.37-7.92-2.05-12.69-2.05h-21.44v56.82h19.66Z"/>
        <path class="cls-4" d="M1208.56,513.17h78.26v8.4h-69.5v50.39h62.54v8.4h-62.54v51.28h72.01v8.4h-80.76v-126.86Z"/>
        <path class="cls-4" d="M1361.69,513.17c4.76,0,9.5.69,14.21,2.05,4.7,1.37,8.99,3.51,12.86,6.43,3.87,2.92,7,6.64,9.38,11.17,2.38,4.53,3.57,9.95,3.57,16.26,0,4.77-.71,9.38-2.14,13.85-1.43,4.47-3.76,8.49-6.97,12.06s-7.38,6.43-12.5,8.58c-5.12,2.14-11.43,3.22-18.94,3.22h-19.66v53.25h-8.76v-126.86h28.95ZM1360.62,578.39c6.31,0,11.56-.89,15.72-2.68,4.17-1.79,7.44-4.11,9.83-6.97,2.38-2.86,4.09-5.99,5.09-9.38,1.01-3.39,1.52-6.7,1.52-9.92,0-3.81-.69-7.38-2.06-10.72-1.37-3.33-3.37-6.28-5.98-8.85-2.62-2.56-5.78-4.58-9.47-6.08-3.69-1.49-7.8-2.23-12.33-2.23h-21.44v56.82h19.12ZM1378.84,582.32l35.2,57.71h-10.18l-35.38-57.53,10.36-.18Z"/>
        <path class="cls-4" d="M1455.85,513.17h8.76v126.86h-8.76v-126.86Z"/>
        <path class="cls-4" d="M1515,513.17h78.26v8.4h-69.5v50.39h62.54v8.4h-62.54v51.28h72.01v8.4h-80.76v-126.86Z"/>
        <path class="cls-4" d="M1745.31,643.07l-100.06-112.75,2.32-1.79.18,111.5h-8.58v-129.54h.54l100.06,113.64-2.32.71-.17-111.67h8.4v129.9h-.36Z"/>
        <path class="cls-4" d="M1887.18,631.63c-2.75,1.67-5.9,3.28-9.47,4.82-3.57,1.55-7.5,2.77-11.8,3.66-4.29.89-8.93,1.34-13.93,1.34-9.65,0-18.41-1.7-26.27-5.09-7.86-3.4-14.59-8.04-20.19-13.94-5.6-5.9-9.92-12.69-12.96-20.37-3.04-7.68-4.56-15.87-4.56-24.57,0-9.29,1.61-17.93,4.83-25.91,3.22-7.98,7.74-14.95,13.58-20.91,5.84-5.95,12.62-10.6,20.37-13.94,7.75-3.33,16.14-5,25.2-5,6.67,0,12.92.89,18.76,2.68s11.14,4.11,15.9,6.97l-3.75,8.04c-4.17-2.62-8.88-4.83-14.12-6.61s-10.78-2.68-16.62-2.68c-7.5,0-14.59,1.46-21.26,4.38-6.68,2.92-12.54,6.97-17.6,12.15-5.07,5.18-9.03,11.23-11.89,18.13-2.86,6.91-4.29,14.36-4.29,22.34s1.28,14.83,3.84,21.62c2.56,6.79,6.25,12.75,11.08,17.87,4.83,5.12,10.63,9.14,17.42,12.06,6.79,2.92,14.36,4.38,22.69,4.38,6.19,0,11.89-.86,17.07-2.59,5.18-1.73,9.79-3.9,13.84-6.52l4.11,7.68Z"/>
        <path class="cls-4" d="M1929.53,513.17h78.26v8.4h-69.5v50.39h62.54v8.4h-62.54v51.28h72.01v8.4h-80.76v-126.86Z"/>
      </g>
    </g>
  </g>
</svg>