<?xml version="1.0" encoding="UTF-8"?>
<svg id="Layer_2" data-name="Layer 2" xmlns="http://www.w3.org/2000/svg" viewBox="0 0 1167.84 510.8">
  <defs>
    <style>
      .cls-1 {
        fill: #e2e2e2;
      }

      .cls-2 {
        fill: #c6a16b;
      }
    </style>
  </defs>
  <g id="Layer_1-2" data-name="Layer 1">
    <g>
      <g>
        <path class="cls-1" d="M48.78,5.18c10.84,0,20.02,1.82,27.52,5.45,7.5,3.63,13.22,8.75,17.16,15.36,3.93,6.61,5.9,14.45,5.9,23.5,0,5.36-.81,10.75-2.42,16.17-1.61,5.42-4.17,10.34-7.68,14.74-3.52,4.41-8.22,7.95-14.12,10.63-5.9,2.68-13.13,4.02-21.7,4.02h-18.58v41.63H8.94V5.18h39.84ZM53.25,69.86c3.93,0,7.21-.68,9.83-2.06,2.62-1.37,4.68-3.1,6.16-5.18,1.49-2.08,2.56-4.26,3.22-6.52s.98-4.23.98-5.9c0-1.31-.21-3.07-.63-5.27-.42-2.2-1.28-4.44-2.59-6.7-1.31-2.26-3.3-4.17-5.98-5.72-2.68-1.55-6.29-2.32-10.81-2.32h-18.58v39.67h18.4Z"/>
        <path class="cls-1" d="M117.75,136.69L177.07,0h1.43l59.32,136.69h-30.02l-37.88-96.13,18.76-12.86-45.39,109h-25.55ZM158.31,89.16h39.49l9.11,21.8h-56.64l8.04-21.8Z"/>
        <path class="cls-1" d="M306.8,5.18c8.22,0,15.55,1.04,21.97,3.13,6.43,2.09,11.82,5.06,16.17,8.93,4.35,3.87,7.65,8.52,9.92,13.94,2.26,5.42,3.39,11.53,3.39,18.31,0,5.36-.8,10.72-2.41,16.08-1.61,5.36-4.23,10.25-7.87,14.65-3.63,4.41-8.43,7.95-14.38,10.63-5.96,2.68-13.34,4.02-22.16,4.02h-18.58v41.81h-25.91V5.18h39.85ZM311.26,69.86c3.93,0,7.2-.65,9.83-1.97s4.67-2.97,6.16-5c1.49-2.02,2.56-4.14,3.22-6.34.65-2.2.98-4.26.98-6.16,0-1.43-.21-3.24-.63-5.45-.42-2.2-1.29-4.44-2.59-6.7-1.31-2.26-3.3-4.17-5.99-5.72-2.68-1.55-6.28-2.32-10.81-2.32h-18.58v39.67h18.41ZM335.56,85.94l32.52,50.75h-30.2l-33.23-50.03,30.91-.72Z"/>
        <path class="cls-1" d="M399.52,5.18h25.91v131.51h-25.91V5.18Z"/>
        <path class="cls-1" d="M539.61,36.99c-5.01-2.74-10.1-5-15.28-6.79-5.18-1.79-10.04-2.68-14.56-2.68-5.6,0-10.01,1.13-13.22,3.4-3.22,2.26-4.82,5.66-4.82,10.18,0,3.1,1.22,5.87,3.66,8.31,2.44,2.44,5.6,4.62,9.47,6.52,3.87,1.91,7.89,3.64,12.06,5.18,3.81,1.43,7.59,3.13,11.35,5.09,3.75,1.97,7.11,4.41,10.1,7.33,2.97,2.92,5.36,6.55,7.15,10.9,1.78,4.35,2.68,9.68,2.68,15.99,0,6.67-1.73,12.86-5.18,18.58-3.45,5.72-8.52,10.33-15.19,13.85-6.67,3.51-14.89,5.27-24.65,5.27-5.01,0-10.1-.51-15.28-1.52s-10.28-2.56-15.28-4.65c-5.01-2.08-9.83-4.73-14.48-7.95l11.43-20.19c3.1,2.26,6.46,4.26,10.1,5.98,3.63,1.73,7.3,3.07,10.99,4.02,3.69.95,7.09,1.43,10.19,1.43s6.22-.45,9.38-1.34,5.78-2.41,7.87-4.56c2.08-2.14,3.12-5.12,3.12-8.93,0-2.62-.86-5-2.59-7.15-1.73-2.14-4.05-4.11-6.97-5.9-2.92-1.79-6.1-3.33-9.56-4.65-4.05-1.55-8.22-3.33-12.5-5.36-4.29-2.02-8.31-4.5-12.06-7.41-3.76-2.92-6.79-6.55-9.11-10.9-2.32-4.35-3.49-9.68-3.49-15.99,0-7.62,1.7-14.23,5.09-19.83,3.39-5.6,8.19-10.03,14.38-13.31,6.19-3.28,13.34-5.09,21.44-5.45,10.6,0,19.21,1.25,25.82,3.75,6.62,2.5,12.54,5.48,17.78,8.93l-9.83,19.83Z"/>
      </g>
      <g>
        <path class="cls-2" d="M0,189.36h88.63v25.01h-31.98v106.49h-25.91v-106.49H0v-25.01Z"/>
        <path class="cls-2" d="M123.65,189.36h89.7v25.01h-63.79v28.05h56.47v25.01h-56.47v28.41h66.29v25.01h-92.2v-131.51Z"/>
        <path class="cls-2" d="M370.4,326.23l-99.7-90.05,7.68,4.29.54,80.41h-26.27v-136.69h1.08l97.55,89.7-5.71-2.5-.54-82.01h26.09v136.87h-.71Z"/>
        <path class="cls-2" d="M532.82,326.23l-99.7-90.05,7.68,4.29.54,80.41h-26.27v-136.69h1.08l97.55,89.7-5.71-2.5-.54-82.01h26.09v136.87h-.71Z"/>
        <path class="cls-2" d="M577.49,189.36h25.91v131.51h-25.91v-131.51Z"/>
        <path class="cls-2" d="M717.58,221.17c-5.01-2.74-10.1-5-15.28-6.79s-10.04-2.68-14.56-2.68c-5.6,0-10.01,1.13-13.22,3.4-3.22,2.26-4.82,5.66-4.82,10.18,0,3.1,1.22,5.87,3.66,8.31,2.44,2.44,5.6,4.62,9.47,6.52,3.87,1.91,7.89,3.64,12.06,5.18,3.81,1.43,7.59,3.13,11.35,5.09,3.75,1.97,7.11,4.41,10.1,7.33,2.97,2.92,5.36,6.55,7.15,10.9,1.78,4.35,2.68,9.68,2.68,15.99,0,6.67-1.73,12.86-5.18,18.58-3.45,5.72-8.52,10.33-15.19,13.85-6.67,3.51-14.89,5.27-24.65,5.27-5.01,0-10.1-.51-15.28-1.52s-10.28-2.56-15.28-4.65c-5.01-2.08-9.83-4.73-14.48-7.95l11.43-20.19c3.1,2.26,6.46,4.26,10.1,5.98,3.63,1.73,7.3,3.07,10.99,4.02,3.69.95,7.09,1.43,10.19,1.43s6.22-.45,9.38-1.34,5.78-2.41,7.87-4.56c2.08-2.14,3.12-5.12,3.12-8.93,0-2.62-.86-5-2.59-7.15-1.73-2.14-4.05-4.11-6.97-5.9-2.92-1.79-6.1-3.33-9.56-4.65-4.05-1.55-8.22-3.33-12.5-5.36-4.29-2.02-8.31-4.5-12.06-7.41-3.76-2.92-6.79-6.55-9.11-10.9-2.32-4.35-3.49-9.68-3.49-15.99,0-7.62,1.7-14.23,5.09-19.83,3.39-5.6,8.19-10.03,14.38-13.31,6.19-3.28,13.34-5.09,21.44-5.45,10.6,0,19.21,1.25,25.82,3.75,6.62,2.5,12.54,5.48,17.78,8.93l-9.83,19.83Z"/>
      </g>
      <g>
        <path class="cls-1" d="M12.15,380.9h78.26v8.4H20.91v50.39h62.54v8.4H20.91v51.28h72.01v8.4H12.15v-126.86Z"/>
        <path class="cls-1" d="M123.83,507.76l42.88-67.01,4.64,7.68-36.81,59.32h-10.72ZM125.61,380.9h10.9l82.55,126.86h-11.08l-82.37-126.86ZM170.82,437.9l35.56-57h10.36l-40.91,63.97-5.01-6.97Z"/>
        <path class="cls-1" d="M286.42,380.9c7.86,0,14.75,1.34,20.64,4.02,5.9,2.68,10.48,6.67,13.76,11.97,3.28,5.3,4.91,11.94,4.91,19.92,0,4.77-.75,9.38-2.23,13.85s-3.87,8.49-7.15,12.06-7.44,6.43-12.5,8.58c-5.07,2.14-11.17,3.22-18.31,3.22h-19.66v53.25h-8.76v-126.86h29.3ZM285.53,446.12c6.19,0,11.34-.98,15.45-2.95,4.11-1.97,7.33-4.47,9.65-7.5,2.32-3.04,3.99-6.22,5-9.56,1.01-3.33,1.52-6.43,1.52-9.29,0-4.05-.66-7.74-1.97-11.08-1.31-3.33-3.25-6.22-5.81-8.67-2.56-2.44-5.69-4.35-9.38-5.72-3.69-1.37-7.92-2.05-12.69-2.05h-21.44v56.82h19.66Z"/>
        <path class="cls-1" d="M366.11,380.9h78.26v8.4h-69.5v50.39h62.54v8.4h-62.54v51.28h72.01v8.4h-80.76v-126.86Z"/>
        <path class="cls-1" d="M519.24,380.9c4.76,0,9.5.69,14.21,2.05,4.7,1.37,8.99,3.51,12.86,6.43,3.87,2.92,7,6.64,9.38,11.17,2.38,4.53,3.57,9.95,3.57,16.26,0,4.77-.71,9.38-2.14,13.85-1.43,4.47-3.76,8.49-6.97,12.06s-7.38,6.43-12.5,8.58c-5.12,2.14-11.43,3.22-18.94,3.22h-19.66v53.25h-8.76v-126.86h28.95ZM518.17,446.12c6.31,0,11.56-.89,15.72-2.68,4.17-1.79,7.44-4.11,9.83-6.97,2.38-2.86,4.09-5.99,5.09-9.38,1.01-3.39,1.52-6.7,1.52-9.92,0-3.81-.69-7.38-2.06-10.72-1.37-3.33-3.37-6.28-5.98-8.85-2.62-2.56-5.78-4.58-9.47-6.08-3.69-1.49-7.8-2.23-12.33-2.23h-21.44v56.82h19.12ZM536.4,450.05l35.2,57.71h-10.18l-35.38-57.53,10.36-.18Z"/>
        <path class="cls-1" d="M613.4,380.9h8.76v126.86h-8.76v-126.86Z"/>
        <path class="cls-1" d="M672.55,380.9h78.26v8.4h-69.5v50.39h62.54v8.4h-62.54v51.28h72.01v8.4h-80.76v-126.86Z"/>
        <path class="cls-1" d="M902.86,510.8l-100.06-112.75,2.32-1.79.18,111.5h-8.58v-129.54h.54l100.06,113.64-2.32.71-.17-111.67h8.4v129.9h-.36Z"/>
        <path class="cls-1" d="M1044.73,499.37c-2.75,1.67-5.9,3.28-9.47,4.82-3.57,1.55-7.5,2.77-11.8,3.66-4.29.89-8.93,1.34-13.93,1.34-9.65,0-18.41-1.7-26.27-5.09-7.86-3.4-14.59-8.04-20.19-13.94-5.6-5.9-9.92-12.69-12.96-20.37-3.04-7.68-4.56-15.87-4.56-24.57,0-9.29,1.61-17.93,4.83-25.91,3.22-7.98,7.74-14.95,13.58-20.91,5.84-5.95,12.62-10.6,20.37-13.94,7.75-3.33,16.14-5,25.2-5,6.67,0,12.92.89,18.76,2.68s11.14,4.11,15.9,6.97l-3.75,8.04c-4.17-2.62-8.88-4.83-14.12-6.61s-10.78-2.68-16.62-2.68c-7.5,0-14.59,1.46-21.26,4.38-6.68,2.92-12.54,6.97-17.6,12.15-5.07,5.18-9.03,11.23-11.89,18.13-2.86,6.91-4.29,14.36-4.29,22.34s1.28,14.83,3.84,21.62c2.56,6.79,6.25,12.75,11.08,17.87,4.83,5.12,10.63,9.14,17.42,12.06,6.79,2.92,14.36,4.38,22.69,4.38,6.19,0,11.89-.86,17.07-2.59,5.18-1.73,9.79-3.9,13.84-6.52l4.11,7.68Z"/>
        <path class="cls-1" d="M1087.08,380.9h78.26v8.4h-69.5v50.39h62.54v8.4h-62.54v51.28h72.01v8.4h-80.76v-126.86Z"/>
      </g>
    </g>
  </g>
</svg>